<svg id="Livello_1" data-name="Livello 1" xmlns="http://www.w3.org/2000/svg" viewBox="0 0 2300 900"><defs><style>.cls-1{fill:#16212b;}.cls-2{fill:#e5312d;}</style></defs><title>DonisiSRLText</title><path class="cls-1" d="M1885.65,814.36c-30.13,0-60.27-.2-90.4.16-6.46.07-8.18-1.89-7.81-8a171.85,171.85,0,0,0,0-25c-.68-7.78,1.4-10.12,9.68-10,52.89.44,105.79.23,158.69.22a90.31,90.31,0,0,0,9.6-.22c13.24-1.4,17.23-5.85,17.47-19.13.47-27.1-2.92-30.58-29.81-30.59-34.3,0-68.6-.06-102.9,0a122.9,122.9,0,0,1-25.79-2.47c-21.72-4.59-32.24-16-35.31-38.42a163.39,163.39,0,0,1,.8-50.67c4-22.82,18.87-36.33,43.63-38.92,27.46-2.86,55.08-.82,82.62-1.37,4.4-.09,5.41,2,5.35,5.85-.14,9.92-.34,19.86.07,29.77.24,5.85-1.62,7.71-7.57,7.59-18.27-.37-36.55-.26-54.82-.1-22.21.19-33.93,21.37-22.53,40.71,4.15,7.05,11.33,7.57,18.54,7.58h105.8c11.24,0,22.39.82,33.31,3.73,20.66,5.52,31.56,17.94,34.06,38.95a221.17,221.17,0,0,1,.55,41.24c-2.18,31.41-18.43,47.18-51.85,48.47-30.41,1.17-60.9.25-91.35.25Z"/><path class="cls-1" d="M2255.24,696.74c0,36.49-.19,73,.17,109.48.07,6.87-1.92,8.6-8.53,8.29-11.83-.55-23.72-.37-35.57,0-4.91.13-6.59-1.16-6.57-6.36q.24-111.39,0-222.8c0-5.59,1.79-7,7.12-6.88,11.85.35,23.73.46,35.56,0,6.29-.26,8,1.6,8,7.92C2255.09,623.11,2255.24,659.93,2255.24,696.74Z"/><path class="cls-1" d="M2060.52,751.68c0-17-.59-33.94.12-50.87,1.65-39.28,22.24-60.19,61.57-63.64,15.67-1.37,31.38-.86,47.07-1.1,4.64-.06,7.1.86,6.86,6.31-.4,9.26-.37,18.57,0,27.84.2,5.21-1.83,6.53-6.68,6.51-12.16-.05-24.38-.23-36.48.75-14.27,1.16-20.05,7.36-22.37,21.74-2.67,16.56-1,33.23-1.23,49.85-.31,19.21-.36,38.43.09,57.63.16,6.56-2.07,8-8.12,7.78-11.52-.43-23.08-.39-34.61,0-5.54.19-7.11-1.66-7-7.08.3-18.57.12-37.14.12-55.71Z"/><path class="cls-1" d="M1423,418.09v-9.32c0-97.69.16-195.38-.25-293.07,0-9.58,2.64-11.6,11.62-11.2,17,.77,34,.41,51,.12,5.69-.1,8.31.62,8.29,7.52q-.35,192.18-.22,384.36c0,22.22-10.13,32.84-32.44,34.64-18.67,1.5-34.62-4.52-47.58-18.22Q1296.15,389,1178.91,265.23l-51.43-54.37v12.52q0,144.62.18,289.23c0,7.46-1.75,9.68-9.36,9.39-16.65-.61-33.36-.66-50,0-8,.32-9.94-1.85-9.92-9.86q.43-182.56.2-365.14c0-2.88.11-5.77,0-8.65-.78-17.34,1.87-32.66,21-39.75,19.39-7.2,42.67-2.82,56,11.49,27.46,29.55,54.73,59.26,82.11,88.88q99.75,107.94,199.49,215.89c1.28,1.4,2,3.36,2.91,5.06Z"/><path class="cls-2" d="M1865,521.81c-48.75,0-97.5-.17-146.25.18-7.74.06-10.6-1.56-10.28-9.85.66-16.95.64-34,0-50.92-.31-8.22,1.6-10.76,10.41-10.72,91.73.37,183.45.23,275.18.21,6.08,0,12.1-.09,18.15-1.47,19-4.32,25-10.88,27.82-30.26,1.73-11.83,1.45-23.7.79-35.47-1.45-25.69-14.83-38.17-40.8-38.45-29.82-.33-59.65-.09-89.48-.09q-49.55,0-99.11,0c-16.39,0-32.65-1.61-48.46-6-29.45-8.2-45.93-28.26-50.23-57.95-5.31-36.6-5.6-73.3,1.54-109.76,7.48-38.23,32.13-60.82,70.89-64.55,44.78-4.3,89.72-1,134.57-2,4.55-.1,6.21,1.51,6.17,6.09-.17,19.54-.32,39.09.06,58.62.14,7.25-4.18,6.45-8.73,6.44q-48.1,0-96.22,0a74.47,74.47,0,0,0-14.31,1.19c-18.56,3.75-27.6,14.11-28.72,33.1-.52,8.94-.31,17.93-.31,26.9,0,29.87,11.9,41.95,41.89,42q86.6.17,173.19,0c16.34,0,32.59.56,48.76,3.7,37.17,7.2,59,28.86,64.2,66.53a366.77,366.77,0,0,1,0,100.43c-6.37,46.56-34.73,65.71-78.31,70.06-48.89,4.88-98,1-147.06,2C1875.3,521.9,1870.16,521.81,1865,521.81Z"/><path class="cls-1" d="M53.68,313.16q0-99.95,0-199.89c0-4.91-.87-8.79,7-8.76,102,.43,204,.3,305.93.67,16,0,31.89,2.39,47.57,6,42.09,9.58,65.21,36.43,72.57,78.22a300.18,300.18,0,0,1,4.58,52.52c-.08,54.75,1.2,109.52-.83,164.26a204.5,204.5,0,0,1-6.55,43.56c-10.86,42-40.65,61.6-81.25,68.24a306.9,306.9,0,0,1-49.76,3.92q-144.79-.14-289.59.16c-8.11,0-9.85-2.06-9.81-9.94C53.83,445.78,53.68,379.47,53.68,313.16Zm75,.62c0,42.6.17,85.2-.18,127.79-.06,7.1,1.58,9.07,8.91,9,67-.31,134-.22,201.05-.14a255.83,255.83,0,0,0,28.76-1.54c26.27-2.93,41.83-17.32,46.51-43.34.74-4.08,1.66-8.22,1.67-12.33.1-53.48.81-107-.23-160.43-.65-33.69-16.13-50-47.75-54.58a107.63,107.63,0,0,0-15.35-.8c-71.51-.05-143,.07-214.51-.2-6.93,0-9.16,1.28-9.09,8.75C128.91,228.59,128.7,271.18,128.7,313.78Z"/><path class="cls-1" d="M986.82,313.92c-1,37.42,1.95,74.94-3.25,112.24-8.45,60.7-38.36,89.35-100,93.63-66.59,4.62-133.33,1.44-200,1.64-13.76,0-27.44-2-41-4.94-45.48-9.85-69.26-34.59-77.08-80.48a261.1,261.1,0,0,1-4.11-43.93c0-55.41,0-110.83.37-166.25a203.29,203.29,0,0,1,6.47-47.46c10.6-42.84,40.52-63.12,82-69.73a316.76,316.76,0,0,1,50.73-3.93c53.88.13,107.76,0,161.63.45a206.16,206.16,0,0,1,45.69,5.68c45.21,10.67,68.5,38.26,75,87C988.44,236.46,985.82,275.22,986.82,313.92Zm-351.21-.42c.73,28.81-.85,57.64,1.1,86.44,2.17,32,15.64,46,47.47,49.19,25.92,2.57,51.91,1.25,77.86,1.16,33.33-.12,66.71,1.8,100-1.22,31.18-2.83,46-17,47.86-48.16A1515.17,1515.17,0,0,0,910,229.09c-1.87-34.15-19-50.6-53.61-51.17q-83.68-1.39-167.4.06c-34.71.6-50.22,17.29-52.42,51.94C634.82,257.77,636.34,285.64,635.61,313.5Z"/><path class="cls-1" d="M2247.17,314.24c0,66.27-.12,132.54.17,198.81,0,7.09-1.57,9.16-8.85,9-19.86-.55-39.75-.43-59.61,0-6,.12-7.43-1.65-7.43-7.49q.26-201.21,0-402.43c0-5.88,1.49-7.58,7.45-7.46,19.86.38,39.75.51,59.61,0,7.32-.21,8.86,1.93,8.83,9C2247.05,180.41,2247.17,247.33,2247.17,314.24Z"/><path class="cls-1" d="M1568.22,313.27c0-66.6.12-133.2-.18-199.8,0-7.08,1.52-9.16,8.84-8.94,19.86.57,39.75.39,59.61.06,5.52-.09,6.86,1.61,6.85,7q-.21,201.72,0,403.43c0,5.35-1.32,7-6.84,7-19.87-.33-39.76-.5-59.62.07-7.31.21-8.87-1.86-8.84-9C1568.34,446.47,1568.22,379.87,1568.22,313.27Z"/></svg>